# xmcd
#
# Track frame offsets:
# 150
# 25040
# 40294
# 56586
# 74503
# 91633
# 108949
# 123731
# 138959
# 156074
# 171728
# 186032
# 200823
# 217652
#
# Disc length: 3226 seconds
#
#
# Revision: 3
# Processed by: cddbd v1.5.2PL0 Copyright (c) Steve Scherf et al.
# Submitted via: FreeRIP 2.96 
#
DISCID=c50c980e
DTITLE=SORRISO MAROTO - POR VOCÊ - Por Você - Ao vivo
DYEAR=2005
DGENRE=Samba
TTITLE0=Sorriso Maroto - Ainda Gosto de Você - Me Espera - Coração Deserto
TTITLE1=Sorriso Maroto - Engano
TTITLE2=Sorriso Maroto - Já Era
TTITLE3=Sorriso Maroto - Eu Vacilei
TTITLE4=Sorriso Maroto - Estrela Maior
TTITLE5=Sorriso Maroto - E Agora - Cadê Você
TTITLE6=Sorriso Maroto - Adivinha O Que?
TTITLE7=Sorriso Maroto - Me Olha no Olhos
TTITLE8=Sorriso Maroto - Diz que Quer Ficar
TTITLE9=Sorriso Maroto - Disfarça
TTITLE10=Sorriso Maroto - Por Você
TTITLE11=Sorriso Maroto - Pra Sempre
TTITLE12=Sorriso Maroto - Aprendi e Quero Amar
TTITLE13=Sorriso Maroto - Nada de Pensar em Despedida - Marque um Lugar - Preciso Viver
EXTD=
EXTT0=
EXTT1=
EXTT2=
EXTT3=
EXTT4=
EXTT5=
EXTT6=
EXTT7=
EXTT8=
EXTT9=
EXTT10=
EXTT11=
EXTT12=
EXTT13=
PLAYORDER=
